<mxfile host="app.diagrams.net" agent="Mozilla/5.0 (Windows NT 10.0; Win64; x64) AppleWebKit/537.36 (KHTML, like Gecko) Chrome/127.0.0.0 Safari/537.36" version="24.7.7">
  <diagram name="Page-1" id="Glty-fS-sKkzmrtzbMQR">
    <mxGraphModel dx="1434" dy="772" grid="1" gridSize="10" guides="1" tooltips="1" connect="1" arrows="1" fold="1" page="1" pageScale="1" pageWidth="1654" pageHeight="1169" math="0" shadow="0">
      <root>
        <mxCell id="0" />
        <mxCell id="1" parent="0" />
        <mxCell id="g2BeV13ZXd_9RdHjEeI9-3" style="edgeStyle=orthogonalEdgeStyle;rounded=0;orthogonalLoop=1;jettySize=auto;html=1;" edge="1" parent="1" target="g2BeV13ZXd_9RdHjEeI9-1">
          <mxGeometry relative="1" as="geometry">
            <mxPoint x="240" y="390" as="sourcePoint" />
          </mxGeometry>
        </mxCell>
        <mxCell id="g2BeV13ZXd_9RdHjEeI9-4" value="i_id" style="edgeLabel;html=1;align=center;verticalAlign=middle;resizable=0;points=[];" vertex="1" connectable="0" parent="g2BeV13ZXd_9RdHjEeI9-3">
          <mxGeometry x="-0.2198" y="-1" relative="1" as="geometry">
            <mxPoint x="-74" y="-1" as="offset" />
          </mxGeometry>
        </mxCell>
        <mxCell id="g2BeV13ZXd_9RdHjEeI9-9" style="edgeStyle=orthogonalEdgeStyle;rounded=0;orthogonalLoop=1;jettySize=auto;html=1;entryX=0.75;entryY=1;entryDx=0;entryDy=0;" edge="1" parent="1" source="g2BeV13ZXd_9RdHjEeI9-1" target="g2BeV13ZXd_9RdHjEeI9-6">
          <mxGeometry relative="1" as="geometry" />
        </mxCell>
        <mxCell id="g2BeV13ZXd_9RdHjEeI9-1" value="LUT" style="rounded=0;whiteSpace=wrap;html=1;fillColor=#dae8fc;strokeColor=#6c8ebf;gradientColor=#7ea6e0;" vertex="1" parent="1">
          <mxGeometry x="480" y="330" width="80" height="120" as="geometry" />
        </mxCell>
        <mxCell id="g2BeV13ZXd_9RdHjEeI9-30" style="edgeStyle=orthogonalEdgeStyle;rounded=0;orthogonalLoop=1;jettySize=auto;html=1;" edge="1" parent="1" source="g2BeV13ZXd_9RdHjEeI9-2">
          <mxGeometry relative="1" as="geometry">
            <mxPoint x="1160" y="190" as="targetPoint" />
          </mxGeometry>
        </mxCell>
        <mxCell id="g2BeV13ZXd_9RdHjEeI9-82" style="edgeStyle=orthogonalEdgeStyle;rounded=0;orthogonalLoop=1;jettySize=auto;html=1;entryX=0;entryY=0.25;entryDx=0;entryDy=0;fillColor=#fff2cc;gradientColor=#ffd966;strokeColor=#d6b656;strokeWidth=2;" edge="1" parent="1" target="g2BeV13ZXd_9RdHjEeI9-2">
          <mxGeometry relative="1" as="geometry">
            <mxPoint x="880" y="160" as="sourcePoint" />
          </mxGeometry>
        </mxCell>
        <mxCell id="g2BeV13ZXd_9RdHjEeI9-83" value="i_data" style="edgeLabel;html=1;align=center;verticalAlign=middle;resizable=0;points=[];" vertex="1" connectable="0" parent="g2BeV13ZXd_9RdHjEeI9-82">
          <mxGeometry x="-0.4041" y="1" relative="1" as="geometry">
            <mxPoint as="offset" />
          </mxGeometry>
        </mxCell>
        <mxCell id="g2BeV13ZXd_9RdHjEeI9-2" value="RAM" style="rounded=0;whiteSpace=wrap;html=1;fillColor=#dae8fc;gradientColor=#7ea6e0;strokeColor=#6c8ebf;" vertex="1" parent="1">
          <mxGeometry x="960" y="130" width="80" height="120" as="geometry" />
        </mxCell>
        <mxCell id="g2BeV13ZXd_9RdHjEeI9-11" style="edgeStyle=orthogonalEdgeStyle;rounded=0;orthogonalLoop=1;jettySize=auto;html=1;entryX=0.25;entryY=1;entryDx=0;entryDy=0;" edge="1" parent="1" source="g2BeV13ZXd_9RdHjEeI9-5" target="g2BeV13ZXd_9RdHjEeI9-8">
          <mxGeometry relative="1" as="geometry">
            <Array as="points">
              <mxPoint x="840" y="190" />
              <mxPoint x="840" y="80" />
              <mxPoint x="410" y="80" />
              <mxPoint x="410" y="130" />
            </Array>
          </mxGeometry>
        </mxCell>
        <mxCell id="g2BeV13ZXd_9RdHjEeI9-12" style="edgeStyle=orthogonalEdgeStyle;rounded=0;orthogonalLoop=1;jettySize=auto;html=1;" edge="1" parent="1" source="g2BeV13ZXd_9RdHjEeI9-5" target="g2BeV13ZXd_9RdHjEeI9-2">
          <mxGeometry relative="1" as="geometry" />
        </mxCell>
        <mxCell id="g2BeV13ZXd_9RdHjEeI9-31" value="addr" style="edgeLabel;html=1;align=center;verticalAlign=middle;resizable=0;points=[];" vertex="1" connectable="0" parent="g2BeV13ZXd_9RdHjEeI9-12">
          <mxGeometry x="0.08" relative="1" as="geometry">
            <mxPoint x="19" as="offset" />
          </mxGeometry>
        </mxCell>
        <mxCell id="g2BeV13ZXd_9RdHjEeI9-27" style="edgeStyle=orthogonalEdgeStyle;rounded=0;orthogonalLoop=1;jettySize=auto;html=1;fillColor=#d5e8d4;strokeColor=#82b366;gradientColor=#97d077;" edge="1" parent="1" target="g2BeV13ZXd_9RdHjEeI9-5">
          <mxGeometry relative="1" as="geometry">
            <mxPoint x="240" y="540" as="sourcePoint" />
          </mxGeometry>
        </mxCell>
        <mxCell id="g2BeV13ZXd_9RdHjEeI9-29" value="i_clk" style="edgeLabel;html=1;align=center;verticalAlign=middle;resizable=0;points=[];" vertex="1" connectable="0" parent="g2BeV13ZXd_9RdHjEeI9-27">
          <mxGeometry x="-0.9477" y="3" relative="1" as="geometry">
            <mxPoint as="offset" />
          </mxGeometry>
        </mxCell>
        <mxCell id="g2BeV13ZXd_9RdHjEeI9-28" style="edgeStyle=orthogonalEdgeStyle;rounded=0;orthogonalLoop=1;jettySize=auto;html=1;entryX=0.5;entryY=1;entryDx=0;entryDy=0;fillColor=#d5e8d4;strokeColor=#82b366;gradientColor=#97d077;" edge="1" parent="1" source="g2BeV13ZXd_9RdHjEeI9-5" target="g2BeV13ZXd_9RdHjEeI9-2">
          <mxGeometry relative="1" as="geometry">
            <Array as="points">
              <mxPoint x="790" y="370" />
              <mxPoint x="1000" y="370" />
            </Array>
          </mxGeometry>
        </mxCell>
        <mxCell id="g2BeV13ZXd_9RdHjEeI9-5" value="REG" style="rounded=0;whiteSpace=wrap;html=1;fillColor=#f5f5f5;gradientColor=#b3b3b3;strokeColor=#666666;" vertex="1" parent="1">
          <mxGeometry x="770" y="130" width="40" height="120" as="geometry" />
        </mxCell>
        <mxCell id="g2BeV13ZXd_9RdHjEeI9-7" style="edgeStyle=orthogonalEdgeStyle;rounded=0;orthogonalLoop=1;jettySize=auto;html=1;exitX=0.5;exitY=0;exitDx=0;exitDy=0;entryX=0;entryY=0.5;entryDx=0;entryDy=0;" edge="1" parent="1" source="g2BeV13ZXd_9RdHjEeI9-6" target="g2BeV13ZXd_9RdHjEeI9-5">
          <mxGeometry relative="1" as="geometry" />
        </mxCell>
        <mxCell id="g2BeV13ZXd_9RdHjEeI9-17" style="edgeStyle=orthogonalEdgeStyle;rounded=0;orthogonalLoop=1;jettySize=auto;html=1;" edge="1" parent="1" target="g2BeV13ZXd_9RdHjEeI9-6">
          <mxGeometry relative="1" as="geometry">
            <mxPoint x="240" y="480" as="sourcePoint" />
            <Array as="points">
              <mxPoint x="240" y="480" />
              <mxPoint x="240" y="481" />
              <mxPoint x="700" y="481" />
            </Array>
          </mxGeometry>
        </mxCell>
        <mxCell id="g2BeV13ZXd_9RdHjEeI9-18" value="i_id_set" style="edgeLabel;html=1;align=center;verticalAlign=middle;resizable=0;points=[];" vertex="1" connectable="0" parent="g2BeV13ZXd_9RdHjEeI9-17">
          <mxGeometry x="-0.9104" relative="1" as="geometry">
            <mxPoint as="offset" />
          </mxGeometry>
        </mxCell>
        <mxCell id="g2BeV13ZXd_9RdHjEeI9-6" value="MUX" style="shape=trapezoid;perimeter=trapezoidPerimeter;whiteSpace=wrap;html=1;fixedSize=1;rotation=90;fillColor=#f5f5f5;gradientColor=#b3b3b3;strokeColor=#666666;" vertex="1" parent="1">
          <mxGeometry x="640" y="180" width="120" height="20" as="geometry" />
        </mxCell>
        <mxCell id="g2BeV13ZXd_9RdHjEeI9-10" style="edgeStyle=orthogonalEdgeStyle;rounded=0;orthogonalLoop=1;jettySize=auto;html=1;entryX=0.25;entryY=1;entryDx=0;entryDy=0;" edge="1" parent="1" source="g2BeV13ZXd_9RdHjEeI9-8" target="g2BeV13ZXd_9RdHjEeI9-6">
          <mxGeometry relative="1" as="geometry" />
        </mxCell>
        <mxCell id="g2BeV13ZXd_9RdHjEeI9-8" value="MUX" style="shape=trapezoid;perimeter=trapezoidPerimeter;whiteSpace=wrap;html=1;fixedSize=1;rotation=90;fillColor=#f5f5f5;gradientColor=#b3b3b3;strokeColor=#666666;" vertex="1" parent="1">
          <mxGeometry x="520" y="150" width="120" height="20" as="geometry" />
        </mxCell>
        <mxCell id="g2BeV13ZXd_9RdHjEeI9-14" style="edgeStyle=orthogonalEdgeStyle;rounded=0;orthogonalLoop=1;jettySize=auto;html=1;entryX=0.75;entryY=1;entryDx=0;entryDy=0;" edge="1" parent="1" source="g2BeV13ZXd_9RdHjEeI9-13" target="g2BeV13ZXd_9RdHjEeI9-8">
          <mxGeometry relative="1" as="geometry" />
        </mxCell>
        <mxCell id="g2BeV13ZXd_9RdHjEeI9-16" style="edgeStyle=orthogonalEdgeStyle;rounded=0;orthogonalLoop=1;jettySize=auto;html=1;entryX=0.25;entryY=1;entryDx=0;entryDy=0;" edge="1" parent="1" source="g2BeV13ZXd_9RdHjEeI9-13" target="g2BeV13ZXd_9RdHjEeI9-8">
          <mxGeometry relative="1" as="geometry">
            <Array as="points">
              <mxPoint x="410" y="190" />
              <mxPoint x="410" y="130" />
            </Array>
          </mxGeometry>
        </mxCell>
        <mxCell id="g2BeV13ZXd_9RdHjEeI9-13" value="+1" style="ellipse;whiteSpace=wrap;html=1;aspect=fixed;fillColor=#f5f5f5;gradientColor=#b3b3b3;strokeColor=#666666;" vertex="1" parent="1">
          <mxGeometry x="470" y="170" width="40" height="40" as="geometry" />
        </mxCell>
        <mxCell id="g2BeV13ZXd_9RdHjEeI9-20" style="edgeStyle=orthogonalEdgeStyle;rounded=0;orthogonalLoop=1;jettySize=auto;html=1;entryX=1;entryY=0.5;entryDx=0;entryDy=0;" edge="1" parent="1" source="g2BeV13ZXd_9RdHjEeI9-19" target="g2BeV13ZXd_9RdHjEeI9-8">
          <mxGeometry relative="1" as="geometry">
            <Array as="points">
              <mxPoint x="580" y="250" />
            </Array>
          </mxGeometry>
        </mxCell>
        <mxCell id="g2BeV13ZXd_9RdHjEeI9-25" value="addr_inc" style="edgeLabel;html=1;align=center;verticalAlign=middle;resizable=0;points=[];" vertex="1" connectable="0" parent="g2BeV13ZXd_9RdHjEeI9-20">
          <mxGeometry x="-0.5273" relative="1" as="geometry">
            <mxPoint as="offset" />
          </mxGeometry>
        </mxCell>
        <mxCell id="g2BeV13ZXd_9RdHjEeI9-21" style="edgeStyle=orthogonalEdgeStyle;rounded=0;orthogonalLoop=1;jettySize=auto;html=1;exitX=0.175;exitY=0.75;exitDx=0;exitDy=0;exitPerimeter=0;entryX=0.175;entryY=0.75;entryDx=0;entryDy=0;entryPerimeter=0;" edge="1" parent="1" target="g2BeV13ZXd_9RdHjEeI9-19">
          <mxGeometry relative="1" as="geometry">
            <mxPoint x="240" y="265" as="sourcePoint" />
          </mxGeometry>
        </mxCell>
        <mxCell id="g2BeV13ZXd_9RdHjEeI9-23" value="i_wr" style="edgeLabel;html=1;align=center;verticalAlign=middle;resizable=0;points=[];" vertex="1" connectable="0" parent="g2BeV13ZXd_9RdHjEeI9-21">
          <mxGeometry x="-0.5137" relative="1" as="geometry">
            <mxPoint as="offset" />
          </mxGeometry>
        </mxCell>
        <mxCell id="g2BeV13ZXd_9RdHjEeI9-22" style="edgeStyle=orthogonalEdgeStyle;rounded=0;orthogonalLoop=1;jettySize=auto;html=1;exitX=0.175;exitY=0.25;exitDx=0;exitDy=0;exitPerimeter=0;entryX=0.175;entryY=0.25;entryDx=0;entryDy=0;entryPerimeter=0;" edge="1" parent="1" target="g2BeV13ZXd_9RdHjEeI9-19">
          <mxGeometry relative="1" as="geometry">
            <mxPoint x="240" y="235" as="sourcePoint" />
          </mxGeometry>
        </mxCell>
        <mxCell id="g2BeV13ZXd_9RdHjEeI9-24" value="i_rd" style="edgeLabel;html=1;align=center;verticalAlign=middle;resizable=0;points=[];" vertex="1" connectable="0" parent="g2BeV13ZXd_9RdHjEeI9-22">
          <mxGeometry x="-0.5469" y="-2" relative="1" as="geometry">
            <mxPoint as="offset" />
          </mxGeometry>
        </mxCell>
        <mxCell id="g2BeV13ZXd_9RdHjEeI9-26" style="edgeStyle=orthogonalEdgeStyle;rounded=0;orthogonalLoop=1;jettySize=auto;html=1;exitX=0.175;exitY=0.75;exitDx=0;exitDy=0;exitPerimeter=0;entryX=0;entryY=0.75;entryDx=0;entryDy=0;jumpStyle=arc;" edge="1" parent="1" source="g2BeV13ZXd_9RdHjEeI9-19" target="g2BeV13ZXd_9RdHjEeI9-2">
          <mxGeometry relative="1" as="geometry">
            <Array as="points">
              <mxPoint x="320" y="265" />
              <mxPoint x="320" y="310" />
              <mxPoint x="880" y="310" />
              <mxPoint x="880" y="220" />
            </Array>
          </mxGeometry>
        </mxCell>
        <mxCell id="g2BeV13ZXd_9RdHjEeI9-32" value="wr" style="edgeLabel;html=1;align=center;verticalAlign=middle;resizable=0;points=[];" vertex="1" connectable="0" parent="g2BeV13ZXd_9RdHjEeI9-26">
          <mxGeometry x="0.8943" y="-2" relative="1" as="geometry">
            <mxPoint x="-7" as="offset" />
          </mxGeometry>
        </mxCell>
        <mxCell id="g2BeV13ZXd_9RdHjEeI9-19" value="OR" style="shape=xor;whiteSpace=wrap;html=1;fillColor=#f5f5f5;gradientColor=#b3b3b3;strokeColor=#666666;" vertex="1" parent="1">
          <mxGeometry x="350" y="220" width="50" height="60" as="geometry" />
        </mxCell>
        <mxCell id="g2BeV13ZXd_9RdHjEeI9-35" style="edgeStyle=orthogonalEdgeStyle;rounded=0;orthogonalLoop=1;jettySize=auto;html=1;" edge="1" parent="1" source="g2BeV13ZXd_9RdHjEeI9-33" target="g2BeV13ZXd_9RdHjEeI9-34">
          <mxGeometry relative="1" as="geometry" />
        </mxCell>
        <mxCell id="g2BeV13ZXd_9RdHjEeI9-67" style="edgeStyle=orthogonalEdgeStyle;rounded=0;orthogonalLoop=1;jettySize=auto;html=1;" edge="1" parent="1" target="g2BeV13ZXd_9RdHjEeI9-33">
          <mxGeometry relative="1" as="geometry">
            <mxPoint x="40" y="1060" as="sourcePoint" />
          </mxGeometry>
        </mxCell>
        <mxCell id="g2BeV13ZXd_9RdHjEeI9-70" value="i_load" style="edgeLabel;html=1;align=center;verticalAlign=middle;resizable=0;points=[];" vertex="1" connectable="0" parent="g2BeV13ZXd_9RdHjEeI9-67">
          <mxGeometry x="-0.9561" y="-1" relative="1" as="geometry">
            <mxPoint x="15" as="offset" />
          </mxGeometry>
        </mxCell>
        <mxCell id="g2BeV13ZXd_9RdHjEeI9-71" style="edgeStyle=orthogonalEdgeStyle;rounded=0;orthogonalLoop=1;jettySize=auto;html=1;entryX=1;entryY=0.5;entryDx=0;entryDy=0;" edge="1" parent="1" source="g2BeV13ZXd_9RdHjEeI9-33" target="g2BeV13ZXd_9RdHjEeI9-42">
          <mxGeometry relative="1" as="geometry">
            <Array as="points">
              <mxPoint x="964" y="1060" />
              <mxPoint x="644" y="1060" />
            </Array>
          </mxGeometry>
        </mxCell>
        <mxCell id="g2BeV13ZXd_9RdHjEeI9-33" value="MUX" style="shape=trapezoid;perimeter=trapezoidPerimeter;whiteSpace=wrap;html=1;fixedSize=1;rotation=90;fillColor=#f5f5f5;gradientColor=#b3b3b3;strokeColor=#666666;" vertex="1" parent="1">
          <mxGeometry x="900" y="780" width="128" height="25" as="geometry" />
        </mxCell>
        <mxCell id="g2BeV13ZXd_9RdHjEeI9-63" style="edgeStyle=orthogonalEdgeStyle;rounded=0;orthogonalLoop=1;jettySize=auto;html=1;" edge="1" parent="1" source="g2BeV13ZXd_9RdHjEeI9-34">
          <mxGeometry relative="1" as="geometry">
            <mxPoint x="1240" y="760" as="targetPoint" />
          </mxGeometry>
        </mxCell>
        <mxCell id="g2BeV13ZXd_9RdHjEeI9-64" value="o_byte" style="edgeLabel;html=1;align=center;verticalAlign=middle;resizable=0;points=[];" vertex="1" connectable="0" parent="g2BeV13ZXd_9RdHjEeI9-63">
          <mxGeometry x="0.1034" y="-3" relative="1" as="geometry">
            <mxPoint as="offset" />
          </mxGeometry>
        </mxCell>
        <mxCell id="g2BeV13ZXd_9RdHjEeI9-84" style="edgeStyle=orthogonalEdgeStyle;rounded=0;orthogonalLoop=1;jettySize=auto;html=1;fillColor=#d5e8d4;gradientColor=#97d077;strokeColor=#82b366;strokeWidth=1;" edge="1" parent="1" target="g2BeV13ZXd_9RdHjEeI9-34">
          <mxGeometry relative="1" as="geometry">
            <mxPoint x="40" y="1090" as="sourcePoint" />
          </mxGeometry>
        </mxCell>
        <mxCell id="g2BeV13ZXd_9RdHjEeI9-85" value="i_clk" style="edgeLabel;html=1;align=center;verticalAlign=middle;resizable=0;points=[];" vertex="1" connectable="0" parent="g2BeV13ZXd_9RdHjEeI9-84">
          <mxGeometry x="-0.9512" relative="1" as="geometry">
            <mxPoint as="offset" />
          </mxGeometry>
        </mxCell>
        <mxCell id="g2BeV13ZXd_9RdHjEeI9-34" value="REG" style="rounded=0;whiteSpace=wrap;html=1;fillColor=#f5f5f5;gradientColor=#b3b3b3;strokeColor=#666666;" vertex="1" parent="1">
          <mxGeometry x="1080" y="680" width="40" height="160" as="geometry" />
        </mxCell>
        <mxCell id="g2BeV13ZXd_9RdHjEeI9-37" style="edgeStyle=orthogonalEdgeStyle;rounded=0;orthogonalLoop=1;jettySize=auto;html=1;entryX=0.75;entryY=1;entryDx=0;entryDy=0;" edge="1" parent="1" source="g2BeV13ZXd_9RdHjEeI9-36" target="g2BeV13ZXd_9RdHjEeI9-33">
          <mxGeometry relative="1" as="geometry" />
        </mxCell>
        <mxCell id="g2BeV13ZXd_9RdHjEeI9-79" value="8" style="edgeLabel;html=1;align=center;verticalAlign=middle;resizable=0;points=[];" vertex="1" connectable="0" parent="g2BeV13ZXd_9RdHjEeI9-37">
          <mxGeometry x="-0.7005" relative="1" as="geometry">
            <mxPoint y="1" as="offset" />
          </mxGeometry>
        </mxCell>
        <mxCell id="g2BeV13ZXd_9RdHjEeI9-48" style="edgeStyle=orthogonalEdgeStyle;rounded=0;orthogonalLoop=1;jettySize=auto;html=1;entryX=0.25;entryY=1;entryDx=0;entryDy=0;fillColor=#fff2cc;gradientColor=#ffd966;strokeColor=#d6b656;strokeWidth=2;" edge="1" parent="1" target="g2BeV13ZXd_9RdHjEeI9-36">
          <mxGeometry relative="1" as="geometry">
            <mxPoint x="690" y="893" as="sourcePoint" />
          </mxGeometry>
        </mxCell>
        <mxCell id="g2BeV13ZXd_9RdHjEeI9-49" value="i_tlp[N-1:N-8]" style="edgeLabel;html=1;align=center;verticalAlign=middle;resizable=0;points=[];" vertex="1" connectable="0" parent="g2BeV13ZXd_9RdHjEeI9-48">
          <mxGeometry x="-0.4944" y="-2" relative="1" as="geometry">
            <mxPoint x="15" as="offset" />
          </mxGeometry>
        </mxCell>
        <mxCell id="g2BeV13ZXd_9RdHjEeI9-51" style="edgeStyle=orthogonalEdgeStyle;rounded=0;orthogonalLoop=1;jettySize=auto;html=1;exitX=0.75;exitY=1;exitDx=0;exitDy=0;entryX=0.75;entryY=1;entryDx=0;entryDy=0;strokeWidth=2;fillColor=#dae8fc;gradientColor=#7ea6e0;strokeColor=#6c8ebf;" edge="1" parent="1" target="g2BeV13ZXd_9RdHjEeI9-36">
          <mxGeometry relative="1" as="geometry">
            <mxPoint x="690" y="952.4761904761904" as="sourcePoint" />
          </mxGeometry>
        </mxCell>
        <mxCell id="g2BeV13ZXd_9RdHjEeI9-52" value="i_dllp[N-1:N-8]" style="edgeLabel;html=1;align=center;verticalAlign=middle;resizable=0;points=[];" vertex="1" connectable="0" parent="g2BeV13ZXd_9RdHjEeI9-51">
          <mxGeometry x="-0.5466" y="1" relative="1" as="geometry">
            <mxPoint x="19" as="offset" />
          </mxGeometry>
        </mxCell>
        <mxCell id="g2BeV13ZXd_9RdHjEeI9-36" value="MUX" style="shape=trapezoid;perimeter=trapezoidPerimeter;whiteSpace=wrap;html=1;fixedSize=1;rotation=90;fillColor=#f5f5f5;gradientColor=#b3b3b3;strokeColor=#666666;" vertex="1" parent="1">
          <mxGeometry x="780" y="910" width="120" height="25" as="geometry" />
        </mxCell>
        <mxCell id="g2BeV13ZXd_9RdHjEeI9-40" style="edgeStyle=orthogonalEdgeStyle;rounded=0;orthogonalLoop=1;jettySize=auto;html=1;entryX=0.25;entryY=1;entryDx=0;entryDy=0;" edge="1" parent="1" source="g2BeV13ZXd_9RdHjEeI9-38" target="g2BeV13ZXd_9RdHjEeI9-33">
          <mxGeometry relative="1" as="geometry" />
        </mxCell>
        <mxCell id="g2BeV13ZXd_9RdHjEeI9-76" value="8" style="edgeLabel;html=1;align=center;verticalAlign=middle;resizable=0;points=[];" vertex="1" connectable="0" parent="g2BeV13ZXd_9RdHjEeI9-40">
          <mxGeometry x="-0.1579" y="-1" relative="1" as="geometry">
            <mxPoint as="offset" />
          </mxGeometry>
        </mxCell>
        <mxCell id="g2BeV13ZXd_9RdHjEeI9-38" value="REG" style="rounded=0;whiteSpace=wrap;html=1;fillColor=#f5f5f5;gradientColor=#b3b3b3;strokeColor=#666666;" vertex="1" parent="1">
          <mxGeometry x="760" y="680" width="40" height="160" as="geometry" />
        </mxCell>
        <mxCell id="g2BeV13ZXd_9RdHjEeI9-41" style="edgeStyle=orthogonalEdgeStyle;rounded=0;orthogonalLoop=1;jettySize=auto;html=1;" edge="1" parent="1" source="g2BeV13ZXd_9RdHjEeI9-42">
          <mxGeometry relative="1" as="geometry">
            <mxPoint x="760" y="760" as="targetPoint" />
          </mxGeometry>
        </mxCell>
        <mxCell id="g2BeV13ZXd_9RdHjEeI9-72" style="edgeStyle=orthogonalEdgeStyle;rounded=0;orthogonalLoop=1;jettySize=auto;html=1;entryX=1;entryY=0.5;entryDx=0;entryDy=0;" edge="1" parent="1" source="g2BeV13ZXd_9RdHjEeI9-42" target="g2BeV13ZXd_9RdHjEeI9-57">
          <mxGeometry relative="1" as="geometry">
            <Array as="points">
              <mxPoint x="644" y="1060" />
              <mxPoint x="344" y="1060" />
            </Array>
          </mxGeometry>
        </mxCell>
        <mxCell id="g2BeV13ZXd_9RdHjEeI9-42" value="MUX" style="shape=trapezoid;perimeter=trapezoidPerimeter;whiteSpace=wrap;html=1;fixedSize=1;rotation=90;fillColor=#f5f5f5;gradientColor=#b3b3b3;strokeColor=#666666;" vertex="1" parent="1">
          <mxGeometry x="580" y="780" width="128" height="25" as="geometry" />
        </mxCell>
        <mxCell id="g2BeV13ZXd_9RdHjEeI9-43" style="edgeStyle=orthogonalEdgeStyle;rounded=0;orthogonalLoop=1;jettySize=auto;html=1;entryX=0.75;entryY=1;entryDx=0;entryDy=0;" edge="1" parent="1" source="g2BeV13ZXd_9RdHjEeI9-44" target="g2BeV13ZXd_9RdHjEeI9-42">
          <mxGeometry relative="1" as="geometry" />
        </mxCell>
        <mxCell id="g2BeV13ZXd_9RdHjEeI9-80" value="8" style="edgeLabel;html=1;align=center;verticalAlign=middle;resizable=0;points=[];" vertex="1" connectable="0" parent="g2BeV13ZXd_9RdHjEeI9-43">
          <mxGeometry x="-0.6904" y="1" relative="1" as="geometry">
            <mxPoint x="1" y="1" as="offset" />
          </mxGeometry>
        </mxCell>
        <mxCell id="g2BeV13ZXd_9RdHjEeI9-73" style="edgeStyle=orthogonalEdgeStyle;rounded=0;orthogonalLoop=1;jettySize=auto;html=1;entryX=1;entryY=0.5;entryDx=0;entryDy=0;jumpStyle=arc;" edge="1" parent="1" source="g2BeV13ZXd_9RdHjEeI9-44" target="g2BeV13ZXd_9RdHjEeI9-36">
          <mxGeometry relative="1" as="geometry">
            <Array as="points">
              <mxPoint x="520" y="1020" />
              <mxPoint x="840" y="1020" />
            </Array>
          </mxGeometry>
        </mxCell>
        <mxCell id="g2BeV13ZXd_9RdHjEeI9-74" style="edgeStyle=orthogonalEdgeStyle;rounded=0;orthogonalLoop=1;jettySize=auto;html=1;jumpStyle=arc;" edge="1" parent="1" target="g2BeV13ZXd_9RdHjEeI9-44">
          <mxGeometry relative="1" as="geometry">
            <mxPoint x="40" y="1020" as="sourcePoint" />
            <Array as="points">
              <mxPoint x="40" y="1021" />
              <mxPoint x="520" y="1021" />
            </Array>
          </mxGeometry>
        </mxCell>
        <mxCell id="g2BeV13ZXd_9RdHjEeI9-75" value="i_sel_dllp" style="edgeLabel;html=1;align=center;verticalAlign=middle;resizable=0;points=[];" vertex="1" connectable="0" parent="g2BeV13ZXd_9RdHjEeI9-74">
          <mxGeometry x="-0.9131" y="1" relative="1" as="geometry">
            <mxPoint x="18" as="offset" />
          </mxGeometry>
        </mxCell>
        <mxCell id="g2BeV13ZXd_9RdHjEeI9-44" value="MUX" style="shape=trapezoid;perimeter=trapezoidPerimeter;whiteSpace=wrap;html=1;fixedSize=1;rotation=90;fillColor=#f5f5f5;gradientColor=#b3b3b3;strokeColor=#666666;" vertex="1" parent="1">
          <mxGeometry x="460" y="910" width="120" height="25" as="geometry" />
        </mxCell>
        <mxCell id="g2BeV13ZXd_9RdHjEeI9-45" style="edgeStyle=orthogonalEdgeStyle;rounded=0;orthogonalLoop=1;jettySize=auto;html=1;entryX=0.25;entryY=1;entryDx=0;entryDy=0;" edge="1" parent="1" target="g2BeV13ZXd_9RdHjEeI9-42">
          <mxGeometry relative="1" as="geometry">
            <mxPoint x="480" y="760" as="sourcePoint" />
          </mxGeometry>
        </mxCell>
        <mxCell id="g2BeV13ZXd_9RdHjEeI9-77" value="8" style="edgeLabel;html=1;align=center;verticalAlign=middle;resizable=0;points=[];" vertex="1" connectable="0" parent="g2BeV13ZXd_9RdHjEeI9-45">
          <mxGeometry x="-0.1419" relative="1" as="geometry">
            <mxPoint as="offset" />
          </mxGeometry>
        </mxCell>
        <mxCell id="g2BeV13ZXd_9RdHjEeI9-88" style="edgeStyle=orthogonalEdgeStyle;rounded=0;orthogonalLoop=1;jettySize=auto;html=1;entryX=0.5;entryY=1;entryDx=0;entryDy=0;fillColor=#d5e8d4;gradientColor=#97d077;strokeColor=#82b366;jumpStyle=arc;" edge="1" parent="1" source="g2BeV13ZXd_9RdHjEeI9-46" target="g2BeV13ZXd_9RdHjEeI9-59">
          <mxGeometry relative="1" as="geometry">
            <Array as="points">
              <mxPoint x="460" y="1090" />
              <mxPoint x="220" y="1090" />
            </Array>
          </mxGeometry>
        </mxCell>
        <mxCell id="g2BeV13ZXd_9RdHjEeI9-46" value="REG" style="rounded=0;whiteSpace=wrap;html=1;fillColor=#f5f5f5;gradientColor=#b3b3b3;strokeColor=#666666;" vertex="1" parent="1">
          <mxGeometry x="440" y="680" width="40" height="160" as="geometry" />
        </mxCell>
        <mxCell id="g2BeV13ZXd_9RdHjEeI9-53" style="edgeStyle=orthogonalEdgeStyle;rounded=0;orthogonalLoop=1;jettySize=auto;html=1;entryX=0.25;entryY=1;entryDx=0;entryDy=0;fillColor=#fff2cc;gradientColor=#ffd966;strokeColor=#d6b656;strokeWidth=2;" edge="1" parent="1">
          <mxGeometry relative="1" as="geometry">
            <mxPoint x="508" y="890" as="targetPoint" />
            <mxPoint x="370" y="890" as="sourcePoint" />
          </mxGeometry>
        </mxCell>
        <mxCell id="g2BeV13ZXd_9RdHjEeI9-54" value="i_tlp[N-9:N-15]" style="edgeLabel;html=1;align=center;verticalAlign=middle;resizable=0;points=[];" vertex="1" connectable="0" parent="g2BeV13ZXd_9RdHjEeI9-53">
          <mxGeometry x="-0.4944" y="-2" relative="1" as="geometry">
            <mxPoint x="15" as="offset" />
          </mxGeometry>
        </mxCell>
        <mxCell id="g2BeV13ZXd_9RdHjEeI9-55" style="edgeStyle=orthogonalEdgeStyle;rounded=0;orthogonalLoop=1;jettySize=auto;html=1;exitX=0.75;exitY=1;exitDx=0;exitDy=0;entryX=0.75;entryY=1;entryDx=0;entryDy=0;fillColor=#dae8fc;gradientColor=#7ea6e0;strokeColor=#6c8ebf;strokeWidth=2;" edge="1" parent="1">
          <mxGeometry relative="1" as="geometry">
            <mxPoint x="508" y="950.52" as="targetPoint" />
            <mxPoint x="370" y="949.9961904761903" as="sourcePoint" />
          </mxGeometry>
        </mxCell>
        <mxCell id="g2BeV13ZXd_9RdHjEeI9-56" value="i_dllp[N-9:N-15]" style="edgeLabel;html=1;align=center;verticalAlign=middle;resizable=0;points=[];" vertex="1" connectable="0" parent="g2BeV13ZXd_9RdHjEeI9-55">
          <mxGeometry x="-0.5466" y="1" relative="1" as="geometry">
            <mxPoint x="19" as="offset" />
          </mxGeometry>
        </mxCell>
        <mxCell id="g2BeV13ZXd_9RdHjEeI9-58" style="edgeStyle=orthogonalEdgeStyle;rounded=0;orthogonalLoop=1;jettySize=auto;html=1;" edge="1" parent="1" source="g2BeV13ZXd_9RdHjEeI9-57" target="g2BeV13ZXd_9RdHjEeI9-46">
          <mxGeometry relative="1" as="geometry" />
        </mxCell>
        <mxCell id="g2BeV13ZXd_9RdHjEeI9-61" style="edgeStyle=orthogonalEdgeStyle;rounded=0;orthogonalLoop=1;jettySize=auto;html=1;entryX=0.75;entryY=1;entryDx=0;entryDy=0;fillColor=#fff2cc;gradientColor=#ffd966;strokeColor=#d6b656;strokeWidth=2;" edge="1" parent="1" target="g2BeV13ZXd_9RdHjEeI9-57">
          <mxGeometry relative="1" as="geometry">
            <mxPoint x="230" y="901" as="sourcePoint" />
          </mxGeometry>
        </mxCell>
        <mxCell id="g2BeV13ZXd_9RdHjEeI9-62" value="...." style="edgeLabel;html=1;align=center;verticalAlign=middle;resizable=0;points=[];" vertex="1" connectable="0" parent="g2BeV13ZXd_9RdHjEeI9-61">
          <mxGeometry x="-0.8091" y="-4" relative="1" as="geometry">
            <mxPoint as="offset" />
          </mxGeometry>
        </mxCell>
        <mxCell id="g2BeV13ZXd_9RdHjEeI9-81" value="8" style="edgeLabel;html=1;align=center;verticalAlign=middle;resizable=0;points=[];" vertex="1" connectable="0" parent="g2BeV13ZXd_9RdHjEeI9-61">
          <mxGeometry x="0.6359" y="3" relative="1" as="geometry">
            <mxPoint y="1" as="offset" />
          </mxGeometry>
        </mxCell>
        <mxCell id="g2BeV13ZXd_9RdHjEeI9-57" value="MUX" style="shape=trapezoid;perimeter=trapezoidPerimeter;whiteSpace=wrap;html=1;fixedSize=1;rotation=90;fillColor=#f5f5f5;gradientColor=#b3b3b3;strokeColor=#666666;" vertex="1" parent="1">
          <mxGeometry x="280" y="780" width="128" height="25" as="geometry" />
        </mxCell>
        <mxCell id="g2BeV13ZXd_9RdHjEeI9-60" style="edgeStyle=orthogonalEdgeStyle;rounded=0;orthogonalLoop=1;jettySize=auto;html=1;entryX=0.25;entryY=1;entryDx=0;entryDy=0;" edge="1" parent="1" source="g2BeV13ZXd_9RdHjEeI9-59" target="g2BeV13ZXd_9RdHjEeI9-57">
          <mxGeometry relative="1" as="geometry" />
        </mxCell>
        <mxCell id="g2BeV13ZXd_9RdHjEeI9-78" value="8" style="edgeLabel;html=1;align=center;verticalAlign=middle;resizable=0;points=[];" vertex="1" connectable="0" parent="g2BeV13ZXd_9RdHjEeI9-60">
          <mxGeometry x="-0.2826" y="-1" relative="1" as="geometry">
            <mxPoint as="offset" />
          </mxGeometry>
        </mxCell>
        <mxCell id="g2BeV13ZXd_9RdHjEeI9-65" style="edgeStyle=orthogonalEdgeStyle;rounded=0;orthogonalLoop=1;jettySize=auto;html=1;fillColor=#fff2cc;gradientColor=#ffd966;strokeColor=#d6b656;strokeWidth=2;" edge="1" parent="1" target="g2BeV13ZXd_9RdHjEeI9-59">
          <mxGeometry relative="1" as="geometry">
            <mxPoint x="120" y="760" as="sourcePoint" />
          </mxGeometry>
        </mxCell>
        <mxCell id="g2BeV13ZXd_9RdHjEeI9-66" value="i_tlp[7:0]" style="edgeLabel;html=1;align=center;verticalAlign=middle;resizable=0;points=[];" vertex="1" connectable="0" parent="g2BeV13ZXd_9RdHjEeI9-65">
          <mxGeometry x="-0.4541" y="2" relative="1" as="geometry">
            <mxPoint x="8" y="2" as="offset" />
          </mxGeometry>
        </mxCell>
        <mxCell id="g2BeV13ZXd_9RdHjEeI9-59" value="REG" style="rounded=0;whiteSpace=wrap;html=1;fillColor=#f5f5f5;gradientColor=#b3b3b3;strokeColor=#666666;" vertex="1" parent="1">
          <mxGeometry x="200" y="680" width="40" height="160" as="geometry" />
        </mxCell>
        <mxCell id="g2BeV13ZXd_9RdHjEeI9-86" style="edgeStyle=orthogonalEdgeStyle;rounded=0;orthogonalLoop=1;jettySize=auto;html=1;entryX=0.5;entryY=1;entryDx=0;entryDy=0;jumpStyle=arc;fillColor=#d5e8d4;gradientColor=#97d077;strokeColor=#82b366;" edge="1" parent="1" source="g2BeV13ZXd_9RdHjEeI9-34" target="g2BeV13ZXd_9RdHjEeI9-38">
          <mxGeometry relative="1" as="geometry">
            <Array as="points">
              <mxPoint x="1100" y="1090" />
              <mxPoint x="780" y="1090" />
            </Array>
          </mxGeometry>
        </mxCell>
        <mxCell id="g2BeV13ZXd_9RdHjEeI9-87" style="edgeStyle=orthogonalEdgeStyle;rounded=0;orthogonalLoop=1;jettySize=auto;html=1;entryX=0.5;entryY=1;entryDx=0;entryDy=0;fillColor=#d5e8d4;gradientColor=#97d077;strokeColor=#82b366;jumpStyle=arc;" edge="1" parent="1" source="g2BeV13ZXd_9RdHjEeI9-38" target="g2BeV13ZXd_9RdHjEeI9-46">
          <mxGeometry relative="1" as="geometry">
            <Array as="points">
              <mxPoint x="780" y="1090" />
              <mxPoint x="460" y="1090" />
            </Array>
          </mxGeometry>
        </mxCell>
      </root>
    </mxGraphModel>
  </diagram>
</mxfile>
